# xmcd CD database file
#
# Track frame offsets:
#	150
#	30021
#	47058
#	61749
#	79077
#	91809
#	113785
#	132201
#	155656
#	171008
#	190760
#	209464
#	229798
#
# Disc length: 3341 seconds
#
# Revision: 0
# Processed by: cddbd v1.5.2PL0 Copyright (c) Steve Scherf et al.
# Submitted via: CDex 1.51
#
DISCID=9b0d0b0d
DTITLE=Big Pete - Choice Cuts
DYEAR=2011
DGENRE=Blues
TTITLE0=Driftin'
TTITLE1=Can't You See What You're Doin' To Me (Feat. Alex Schultz)
TTITLE2=Act Like You Love Me (Feat. Kim Wilson)
TTITLE3=Just To Be With You (Feat. Kirk Fletcher)
TTITLE4=Don't Start Crying Now (Feat. Alex Schultz)
TTITLE5=I Got My Eyes On You (Feat. Al Blake and Alex Schultz)
TTITLE6=Hey Lawdy Mama (Feat. Kirk Fletcher)
TTITLE7=I Was Fooled (Feat. Shawn Pittman)
TTITLE8=Rockin' Daddy (Feat. Kid Ramos)
TTITLE9=Left Me With A Broken Heart (Feat. Johnny Dyer and Rob Rio)
TTITLE10=Just Your Fool (Feat. Rusty Zinn)
TTITLE11=Chromatic Crumbs (Feat. John Marx and Alex Schultz)
TTITLE12=I'm A Business Man (Feat. Paul Oscher)
EXTD=YEAR: 2011
EXTT0=
EXTT1=
EXTT2=
EXTT3=
EXTT4=
EXTT5=
EXTT6=
EXTT7=
EXTT8=
EXTT9=
EXTT10=
EXTT11=
EXTT12=
PLAYORDER=
